<?xml version="1.0" encoding="utf-8" ?><svg xmlns="http://www.w3.org/2000/svg" xmlns:xlink="http://www.w3.org/1999/xlink" width="681" height="1077" viewBox="0 0 681 1077"><path fill="#F0B0B8" transform="matrix(2.4854 0 0 2.4873 0 -1.52588e-05)" d="M146.197 4.09223C152.136 3.99088 157.206 4.3319 162.98 5.93694C179.15 10.432 193.374 22.6752 203.063 36.0633C207.094 41.6336 203.537 52.3512 201.93 58.3766C207.585 59.8413 214.569 57.0237 220.117 58.3692C230.379 60.9284 240.208 65.6338 249.216 71.1396C251.826 72.7346 259.143 77.7387 259.854 80.7013C260.86 84.8905 255.784 89.0766 252.377 90.7653C240.658 96.5737 227.213 97.668 214.475 99.7425C208.288 100.715 202.433 101.681 196.296 102.909C199.325 107.135 203.395 117.307 203.085 122.625C202.535 132.078 190.944 140.7 184.235 146.677C198.031 141.309 212.705 138.61 226.982 134.91C231.51 133.737 236.663 131.279 241.328 131.202C245.167 131.139 249.879 133.262 253.357 134.707C259.632 137.316 267.113 141.057 269.807 147.804C271.13 151.119 270.797 154.774 269.43 158.016C260.794 178.497 215.879 199.472 195.785 207.584C213.811 219.41 232.8 233.279 213.632 255.042C205.727 264.017 197.163 270.548 187.858 277.933C200.84 275.516 210.336 273.352 223.851 277.537C236.574 281.541 252.434 291.886 258.833 303.855C269.088 323.039 242.29 336.185 228.276 341.815C224.151 343.472 219.079 344.781 215.211 346.722C211.07 352.333 205.95 369.275 203.55 376.591C198.066 393.304 189.884 405.23 176.212 416.38C174.641 417.66 170.967 419.983 168.819 420.762C162.199 423.165 152.596 428.383 145.544 426.197C141.614 424.569 135.193 420.75 131.711 418.391C106.688 401.443 81.9343 380.07 67.5881 353.036C64.5836 347.298 63.6274 338.752 66.1617 332.827C74.7804 312.676 105.467 301.768 124.577 294.348C130.109 292.199 133.9 291.62 139.555 288.983C140.351 286.729 141.042 283.438 141.669 281.051C144.634 269.75 147.279 266.047 156.372 259.303C158.491 257.765 160.386 256.377 162.719 255.179C171.559 250.643 182.481 242.328 186.116 232.744C174.567 234.911 167.965 239.319 157.199 244.631C138.571 253.746 118.574 265.576 97.401 266.163C91.4809 266.328 86.9366 260.959 87.574 255.282C88.2844 248.955 92.8552 238.981 97.4437 234.434C101.207 231.183 106.268 229.178 110.534 226.912C120.39 221.677 134.904 215.977 143.29 208.727C143.226 206.09 142.87 203.017 142.758 200.258C142.481 194.209 142.602 188.147 143.121 182.114C135.451 184.232 124.975 191.473 118.186 196.242C99.081 209.661 80.2267 224.135 61.656 238.328L44.0077 251.608C37.6156 256.342 29.623 262.839 22.0413 263.757C-0.533909 266.492 10.5105 234.642 20.2855 226.672C26.9211 221.262 30.7006 219.94 38.4271 217.222C45.8262 214.62 51.454 210.728 57.3656 205.929C91.7001 180.846 125.954 154.781 152.231 120.966C138.822 128.548 125.657 136.555 112.757 144.975C94.9997 156.346 77.2266 168.096 57.7165 176.326C56.3397 176.907 54.2622 177.385 52.8454 176.679C40.6209 170.601 29.6894 160.962 20.0778 151.388C17.25 148.571 14.4754 145.431 12.111 142.495C9.74309 139.553 -0.44307 126.099 5.45918 123.374C10.3022 121.137 21.972 130.012 26.2963 131.907C29.2593 131.55 33.2426 130.473 36.1755 129.75C43.8216 127.934 51.3738 125.744 58.8049 123.187C66.9551 120.473 74.3422 118.226 82.5277 115.217C103.227 107.484 123.381 98.3628 142.852 87.9159C145.535 86.4532 153.888 82.0396 155.918 80.1033C158.557 73.4033 156.815 51.6742 155.916 43.9391C155.033 43.3626 154.032 42.6039 153.158 41.925C145.165 35.7532 131.722 27.5835 132.874 15.911C133.286 11.7377 141.856 4.49839 146.197 4.09223ZM132.921 385.626C140.596 388.106 145.523 387.392 152.803 383.769C162.801 378.794 168.843 370.09 173.999 360.515C176.334 356.178 178.414 352.21 179.979 347.431C180.08 347.124 180.173 346.815 180.258 346.504C172.117 347.572 139.413 345.051 131.914 339.85C131.335 339.449 130.598 338.624 130.542 337.864C130.499 337.284 130.609 336.812 131.006 336.367C133.242 333.857 142.285 333.552 145.635 333.42C153.624 333.105 169.238 334.026 175.164 327.607C176.914 325.693 177.848 323.172 177.767 320.58C177.637 317.337 176.031 314.75 172.513 315.076C161.466 317.894 150.436 321.68 139.374 324.462C136.001 325.31 129.681 327.226 126.543 327.551C115.511 328.692 103.013 326.76 92.0509 329.15C87.0993 330.481 81.2822 332.847 78.511 337.408C76.7716 340.272 76.1642 345.594 77.2288 348.753C82.9057 365.598 104.824 374.698 119.969 381.032C123.643 382.569 129.332 384.884 132.921 385.626ZM171.351 195.302C175.209 193.365 178.839 190.998 182.556 188.813C188.749 185.173 209.391 173.564 211.457 167.696C211.66 167.118 211.67 166.442 211.359 165.897C211.049 165.358 210.718 165.14 210.098 165.082C209.914 165.065 209.871 165.08 209.711 165.105C206.811 165.389 203.899 166.098 200.985 166.532C184.947 168.922 167.373 170.178 169.825 191.573C169.955 192.703 169.967 194.243 170.567 195.233C171.104 195.423 170.849 195.424 171.351 195.302Z"/></svg>